<?xml version='1.0' encoding='iso-8859-1'?>
<!DOCTYPE svg PUBLIC '-//W3C//DTD SVG 1.1//EN' 'http://www.w3.org/Graphics/SVG/1.1/DTD/svg11.dtd'>
<svg version="1.1" xmlns="http://www.w3.org/2000/svg" viewBox="0 0 235.233 235.233" xmlns:xlink="http://www.w3.org/1999/xlink" enable-background="new 0 0 235.233 235.233">
  <g>
    <path fill="#FFFFFF" d="m47.188,134.095h-16.868c-7.188,0-13.036,5.848-13.036,13.037v75.065c0,7.188 5.848,13.037 13.036,13.037h16.868c7.188,0 13.037-5.848 13.037-13.037v-75.065c0-7.189-5.849-13.037-13.037-13.037zm1.037,88.102c0,0.572-0.465,1.037-1.037,1.037h-16.868c-0.571,0-1.036-0.465-1.036-1.037v-75.065c0-0.572 0.465-1.037 1.036-1.037h16.868c0.572,0 1.037,0.465 1.037,1.037v75.065z"/>
    <path fill="#FFFFFF" d="m99.26,160.778h-16.868c-7.188,0-13.037,5.848-13.037,13.037v48.382c0,7.188 5.849,13.037 13.037,13.037h16.868c7.188,0 13.036-5.848 13.036-13.037v-48.382c0-7.189-5.847-13.037-13.036-13.037zm1.036,61.419c0,0.572-0.465,1.037-1.036,1.037h-16.868c-0.572,0-1.037-0.465-1.037-1.037v-48.382c0-0.572 0.465-1.037 1.037-1.037h16.868c0.571,0 1.036,0.465 1.036,1.037v48.382z"/>
    <path fill="#FFFFFF" d="m151.333,157.399h-16.868c-7.188,0-13.037,5.848-13.037,13.037v51.761c0,7.188 5.849,13.037 13.037,13.037h16.868c7.188,0 13.036-5.848 13.036-13.037v-51.761c0-7.188-5.848-13.037-13.036-13.037zm1.036,64.798c0,0.572-0.465,1.037-1.036,1.037h-16.868c-0.572,0-1.037-0.465-1.037-1.037v-51.761c0-0.572 0.465-1.037 1.037-1.037h16.868c0.571,0 1.036,0.465 1.036,1.037v51.761z"/>
    <path fill="#FFFFFF" d="m204.914,137.475h-16.868c-7.188,0-13.037,5.848-13.037,13.037v71.686c0,7.188 5.849,13.037 13.037,13.037h16.868c7.188,0 13.036-5.848 13.036-13.037v-71.686c0-7.189-5.848-13.037-13.036-13.037zm1.036,84.722c0,0.572-0.465,1.037-1.036,1.037h-16.868c-0.572,0-1.037-0.465-1.037-1.037v-71.686c0-0.572 0.465-1.037 1.037-1.037h16.868c0.571,0 1.036,0.465 1.036,1.037v71.686z"/>
    <path fill="#FFFFFF" d="M115.37,0C73.699,0,39.796,33.902,39.796,75.573s33.902,75.573,75.573,75.573s75.572-33.902,75.572-75.573   S157.041,0,115.37,0z M115.37,139.146c-35.055,0-63.573-28.519-63.573-63.573S80.315,12,115.37,12   c35.054,0,63.572,28.519,63.572,63.573S150.423,139.146,115.37,139.146z"/>
    <path fill="#FFFFFF" d="m128.703,56.239c0,3.313 2.687,6 6,6s6-2.687 6-6c0-11.901-8.252-21.907-19.333-24.609v-6.454c0-3.313-2.687-6-6-6s-6,2.687-6,6v6.454c-11.082,2.702-19.334,12.707-19.334,24.609s8.252,21.907 19.334,24.609v25.948c-4.343-2.201-7.334-6.698-7.334-11.891 0-3.313-2.687-6-6-6s-6,2.687-6,6c0,11.902 8.252,21.907 19.334,24.609v6.454c0,3.313 2.687,6 6,6s6-2.687 6-6v-6.454c11.081-2.702 19.333-12.707 19.333-24.609s-8.252-21.907-19.333-24.609v-25.947c4.342,2.201 7.333,6.698 7.333,11.89zm-26.667,0c0-5.193 2.991-9.69 7.334-11.891v23.782c-4.344-2.2-7.334-6.698-7.334-11.891zm26.667,38.667c0,5.193-2.99,9.69-7.333,11.89v-23.78c4.342,2.2 7.333,6.698 7.333,11.89z"/>
  </g>
</svg>
